<?xml version="1.0" standalone="no"?><!DOCTYPE svg PUBLIC "-//W3C//DTD SVG 1.1//EN" "http://www.w3.org/Graphics/SVG/1.1/DTD/svg11.dtd"><svg t="1638282905659" class="icon" viewBox="0 0 1024 1024" version="1.1" xmlns="http://www.w3.org/2000/svg" p-id="5813" width="48" height="48" xmlns:xlink="http://www.w3.org/1999/xlink"><defs><style type="text/css"></style></defs><path d="M937.472 404.864A450.496 450.496 0 0 0 494.72 74.016c473.376 229.728 260.416 555.52 260.416 555.52l-274.272-277.408 105.024-113.376-72.192-66.464-56.896 50.56-106.496-1.44-215.168 218.144 131.2 117.728 81.664-78.016 280.096 269.472c-238.496 154.56-455.136-99.712-455.136-99.712l-85.344 73.6 64.928 75.136-10.944 15.168a51.584 51.584 0 0 0-43.04 10.816c-74.4 71.52 15.328 110.528 15.328 110.528 86.784 19.488 83.2-70.08 83.2-70.08l16-20.224c326.784 174.816 520.064 18.048 520.064 18.048l94.112 87.424 128.384-127.136-83.904-90.304c-0.704 0 113.792-166.848 65.664-327.232" fill="#d81e06" p-id="5814"></path></svg>
